<?xml version="1.0" encoding="utf-8"?>
<!-- Generator: Adobe Illustrator 19.1.0, SVG Export Plug-In . SVG Version: 6.00 Build 0)  -->
<svg version="1.1" id="Layer_1" xmlns="http://www.w3.org/2000/svg" xmlns:xlink="http://www.w3.org/1999/xlink" x="0px" y="0px"
	 viewBox="30 -42 100 125" style="enable-background:new 30 -42 100 125;" xml:space="preserve">
<style type="text/css">
	.st0{stroke:#231F20;stroke-width:3.3441;}
</style>
<path class="st0" d="M50.8,29.2"/>
<path class="st0" d="M44.7,8"/>
<path d="M84.9-35.5c-21.4,0-39.3,15.6-42.8,36l-4.7-4.7c-1.3-1.3-3.4-1.3-4.7,0s-1.3,3.4,0,4.7l9.7,9.7c0,0,0,0,0,0
	c0.1,0.1,0.2,0.1,0.2,0.2c0.1,0.1,0.2,0.2,0.3,0.2c0.1,0.1,0.3,0.1,0.4,0.2c0.1,0,0.1,0.1,0.2,0.1c0.2,0.1,0.3,0.1,0.5,0.2
	c0,0,0.1,0,0.1,0c0.2,0,0.4,0.1,0.7,0.1s0.4,0,0.7-0.1c0,0,0.1,0,0.1,0c0.2,0,0.3-0.1,0.5-0.2c0.1,0,0.1-0.1,0.2-0.1
	c0.1-0.1,0.3-0.1,0.4-0.2c0.1-0.1,0.2-0.1,0.3-0.2c0.1-0.1,0.2-0.1,0.2-0.2l9.7-9.7c1.3-1.3,1.3-3.4,0-4.7c-1.3-1.3-3.4-1.3-4.7,0
	l-2.9,2.9c4.1-15.8,18.5-27.5,35.6-27.5c20.3,0,36.8,16.5,36.8,36.8s-16.5,36.8-36.8,36.8c-12.8,0-24.5-6.5-31.3-17.4
	c-1-1.6-3-2-4.6-1.1c-1.6,1-2,3-1.1,4.6c8,12.9,21.8,20.5,36.9,20.5c24,0,43.5-19.5,43.5-43.5C128.3-16,108.8-35.5,84.9-35.5z"/>
<path d="M98.6,4.7H88.2l0-20.1c0-1.8-1.5-3.3-3.3-3.3c0,0,0,0,0,0c-1.8,0-3.3,1.5-3.3,3.3l0,23.4c0,1.8,1.5,3.3,3.3,3.3c0,0,0,0,0,0
	c0.1,0,0.1,0,0.2,0c0.1,0,0.1,0,0.2,0h13.4c1.8,0,3.3-1.5,3.3-3.3S100.5,4.7,98.6,4.7z"/>
</svg>
