<?xml version="1.0" encoding="utf-8"?>
<!-- Generator: Adobe Illustrator 19.1.0, SVG Export Plug-In . SVG Version: 6.00 Build 0)  -->
<svg version="1.1" id="Layer_1" xmlns="http://www.w3.org/2000/svg" xmlns:xlink="http://www.w3.org/1999/xlink" x="0px" y="0px"
	 viewBox="30 -42 100 125" style="enable-background:new 30 -42 100 125;" xml:space="preserve">
<g>
	<path d="M58.8-16.2c2.2,0,4.1-1.8,4.1-4.1v-8.8c0-2.2-1.8-4.1-4.1-4.1s-4.1,1.8-4.1,4.1v8.8C54.7-18,56.5-16.2,58.8-16.2z"/>
	<path d="M101.2-16.2c2.2,0,4.1-1.8,4.1-4.1v-8.8c0-2.2-1.8-4.1-4.1-4.1s-4.1,1.8-4.1,4.1v8.8C97.1-18,99-16.2,101.2-16.2z"/>
	<path d="M116.7-25h-8.3v4.8c0,3.9-3.2,7.1-7.1,7.1s-7.1-3.2-7.1-7.1V-25H65.9v4.8c0,3.9-3.2,7.1-7.1,7.1c-3.9,0-7.1-3.2-7.1-7.1
		V-25h-8.3c-5.9,0-10.6,4.8-10.6,10.6v9.4h94.6v-9.4C127.3-20.3,122.5-25,116.7-25z"/>
	<path d="M32.7,38.5c0,5.9,4.8,10.7,10.6,10.7h73.3c5.9,0,10.6-4.8,10.6-10.7V-0.9H32.7V38.5z M104.6,8.8c0-1.4,1.1-2.5,2.5-2.5h8.6
		c1.4,0,2.5,1.1,2.5,2.5v8.6c0,1.4-1.1,2.5-2.5,2.5h-8.6c-1.4,0-2.5-1.1-2.5-2.5V8.8z M104.6,28.9c0-1.4,1.1-2.5,2.5-2.5h8.6
		c1.4,0,2.5,1.1,2.5,2.5v8.6c0,1.4-1.1,2.5-2.5,2.5h-8.6c-1.4,0-2.5-1.1-2.5-2.5V28.9z M84,8.8c0-1.4,1.1-2.5,2.5-2.5h8.6
		c1.4,0,2.5,1.1,2.5,2.5v8.6c0,1.4-1.1,2.5-2.5,2.5h-8.6c-1.4,0-2.5-1.1-2.5-2.5V8.8z M84,28.9c0-1.4,1.1-2.5,2.5-2.5h8.6
		c1.4,0,2.5,1.1,2.5,2.5v8.6c0,1.4-1.1,2.5-2.5,2.5h-8.6c-1.4,0-2.5-1.1-2.5-2.5V28.9z M63.1,8.8c0-1.4,1.1-2.5,2.5-2.5h8.6
		c1.4,0,2.5,1.1,2.5,2.5v8.6c0,1.4-1.1,2.5-2.5,2.5h-8.6c-1.4,0-2.5-1.1-2.5-2.5V8.8z M63.1,28.9c0-1.4,1.1-2.5,2.5-2.5h8.6
		c1.4,0,2.5,1.1,2.5,2.5v8.6c0,1.4-1.1,2.5-2.5,2.5h-8.6c-1.4,0-2.5-1.1-2.5-2.5V28.9z M41.8,8.8c0-1.4,1.1-2.5,2.5-2.5h8.6
		c1.4,0,2.5,1.1,2.5,2.5v8.6c0,1.4-1.1,2.5-2.5,2.5h-8.6c-1.4,0-2.5-1.1-2.5-2.5C41.8,17.4,41.8,8.8,41.8,8.8z M41.8,28.9
		c0-1.4,1.1-2.5,2.5-2.5h8.6c1.4,0,2.5,1.1,2.5,2.5v8.6c0,1.4-1.1,2.5-2.5,2.5h-8.6c-1.4,0-2.5-1.1-2.5-2.5
		C41.8,37.5,41.8,28.9,41.8,28.9z"/>
</g>
</svg>
