<?xml version="1.0" encoding="utf-8"?>
<!-- Generator: Adobe Illustrator 19.1.0, SVG Export Plug-In . SVG Version: 6.00 Build 0)  -->
<svg version="1.1" id="Layer_1" xmlns="http://www.w3.org/2000/svg" xmlns:xlink="http://www.w3.org/1999/xlink" x="0px" y="0px"
	 viewBox="30 -42 100 125" style="enable-background:new 30 -42 100 125;" xml:space="preserve">
<path d="M101.9-30.6h-7.7c0-3.3-2.8-6-6.1-6H71.9c-3.3,0-6.1,2.7-6.1,6h-7.7c-6.4,0-11.5,5.2-11.5,11.5v60.2
	c0,6.3,5.2,11.5,11.5,11.5l43.7,0c6.4,0,11.5-5.2,11.5-11.5v-60.1C113.4-25.4,108.2-30.6,101.9-30.6z M68.8-30.5
	c0-1.7,1.4-3.1,3.1-3.1h16.2c1.7,0,3.1,1.4,3.1,3.1v6H68.8V-30.5z M110.4,41.1c0,4.7-3.8,8.5-8.5,8.5l-43.7,0
	c-4.7,0-8.5-3.8-8.5-8.5v-60.2c0-4.7,3.8-8.5,8.5-8.5h7.7v4.5c0,0.8,0.7,1.5,1.5,1.5h25.4c0.8,0,1.5-0.7,1.5-1.5v-4.5h7.7
	c4.7,0,8.5,3.8,8.5,8.5C110.4-19.1,110.4,41.1,110.4,41.1z M72.8-3.5h5.7v5.7c0,0.8,0.7,1.5,1.5,1.5c0.8,0,1.5-0.7,1.5-1.5v-5.7h5.7
	c0.8,0,1.5-0.7,1.5-1.5c0-0.8-0.7-1.5-1.5-1.5h-5.7v-5.7c0-0.8-0.7-1.5-1.5-1.5c-0.8,0-1.5,0.7-1.5,1.5v5.7h-5.7
	c-0.8,0-1.5,0.7-1.5,1.5C71.3-4.1,72-3.5,72.8-3.5z M98.1,27H61.9c-0.8,0-1.5,0.7-1.5,1.5c0,0.8,0.7,1.5,1.5,1.5h36.2
	c0.8,0,1.5-0.7,1.5-1.5C99.6,27.7,98.9,27,98.1,27z M98.1,19H61.9c-0.8,0-1.5,0.7-1.5,1.5c0,0.8,0.7,1.5,1.5,1.5h36.2
	c0.8,0,1.5-0.7,1.5-1.5C99.6,19.6,98.9,19,98.1,19z M98.1,10.9H61.9c-0.8,0-1.5,0.7-1.5,1.5s0.7,1.5,1.5,1.5h36.2
	c0.8,0,1.5-0.7,1.5-1.5S98.9,10.9,98.1,10.9z M89,35.1H71c-0.8,0-1.5,0.7-1.5,1.5s0.7,1.5,1.5,1.5H89c0.8,0,1.5-0.7,1.5-1.5
	S89.9,35.1,89,35.1z"/>
</svg>
