<svg xmlns="http://www.w3.org/2000/svg" xmlns:xlink="http://www.w3.org/1999/xlink" version="1.1" x="0px" y="0px" viewBox="0 0 24 30" enable-background="new 0 0 24 24" xml:space="preserve"><path d="M22.321,11.316L12.29,2.619c-0.155-0.159-0.449-0.15-0.592,0.018l-9.972,8.68c-0.165,0.145-0.183,0.394-0.039,0.559  c0.144,0.165,0.394,0.183,0.558,0.04l1.589-1.387v10.581c0,0.219,0.177,0.396,0.396,0.396h5.184c0.218,0,0.395-0.178,0.395-0.396  v-5.254h4.396v5.254c0,0.219,0.179,0.396,0.397,0.396h5.182c0.221,0,0.396-0.178,0.396-0.396V10.525l1.621,1.389  c0.075,0.065,0.168,0.096,0.26,0.096c0.111,0,0.222-0.046,0.299-0.135C22.504,11.71,22.486,11.46,22.321,11.316z M19.39,9.997  v10.717h-4.394v-5.256c0-0.218-0.176-0.397-0.394-0.397H9.415c-0.22,0-0.397,0.18-0.397,0.397v5.256H4.627V9.997  c0-0.047-0.012-0.093-0.027-0.134l7.405-6.442l7.41,6.441C19.399,9.904,19.39,9.949,19.39,9.997z"/><text x="0" y="39" fill="#000000" font-size="5px" font-weight="bold" font-family="'Helvetica Neue', Helvetica, Arial-Unicode, Arial, Sans-serif">Created by Tancrède Chaleil</text><text x="0" y="44" fill="#000000" font-size="5px" font-weight="bold" font-family="'Helvetica Neue', Helvetica, Arial-Unicode, Arial, Sans-serif">from the Noun Project</text></svg>