<?xml version="1.0" encoding="utf-8"?>
<!-- Generator: Adobe Illustrator 19.1.0, SVG Export Plug-In . SVG Version: 6.00 Build 0)  -->
<svg version="1.1" id="Layer_1" xmlns="http://www.w3.org/2000/svg" xmlns:xlink="http://www.w3.org/1999/xlink" x="0px" y="0px"
	 viewBox="30 -42 100 125" style="enable-background:new 30 -42 100 125;" xml:space="preserve">
<path d="M96.6-14.5c-2-0.8-4-1.3-5.2-1.6v-2.2h2.8V-32c0-0.8-0.7-1.5-1.5-1.5H68.4c-0.8,0-1.5,0.7-1.5,1.5v13.8h2.9v2.2
	c-1.1,0.3-3.1,0.8-5.2,1.6c-4.5,1.7-6.7,3.5-6.7,5.7v52.4l0,0.1c0.1,1.2,1.1,3.6,4,3.6h37.4c2.9,0,3.9-2.4,4-3.6l0-52.5
	C103.3-10.9,101.1-12.8,96.6-14.5z M95.3,35.5H66V16.9v-0.6V0h29.2v16.3v0.6V35.5z M101,16.3h-3.4V-2.3H63.7v18.6h-3.4V-8.8
	c0-1.7,5.6-4.1,10.9-5.2l0.9-0.2v-2h17.1v2l0.9,0.2c5.3,1.1,10.9,3.4,10.9,5.2L101,16.3L101,16.3z"/>
<polygon points="91.1,12.9 84.3,12.9 84.3,6.1 77,6.1 77,12.9 70.1,12.9 70.1,20.2 77,20.2 77,27.1 84.3,27.1 84.3,20.2 91.1,20.2 
	"/>
</svg>
