<svg xmlns="http://www.w3.org/2000/svg" xmlns:xlink="http://www.w3.org/1999/xlink" version="1.1" x="0px" y="0px" viewBox="0 0 24 30" enable-background="new 0 0 24 24" xml:space="preserve"><path d="M12,16c2.761,0,5-2.239,5-5V7c0-2.761-2.239-5-5-5S7,4.239,7,7v4C7,13.761,9.239,16,12,16z M9,7c0-1.654,1.346-3,3-3  s3,1.346,3,3v4c0,1.654-1.346,3-3,3s-3-1.346-3-3V7z"/><path d="M11,19.941V22h2v-2.059c4.493-0.5,8-4.317,8-8.941V9h-2v2c0,3.86-3.14,7-7,7s-7-3.14-7-7V9H3v2  C3,15.624,6.507,19.441,11,19.941z"/><text x="0" y="39" fill="#000000" font-size="5px" font-weight="bold" font-family="'Helvetica Neue', Helvetica, Arial-Unicode, Arial, Sans-serif">Created by Arthur Shlain</text><text x="0" y="44" fill="#000000" font-size="5px" font-weight="bold" font-family="'Helvetica Neue', Helvetica, Arial-Unicode, Arial, Sans-serif">from the Noun Project</text></svg>