<?xml version="1.0" encoding="utf-8"?>
<!-- Generator: Adobe Illustrator 19.1.0, SVG Export Plug-In . SVG Version: 6.00 Build 0)  -->
<svg version="1.1" id="Layer_1" xmlns="http://www.w3.org/2000/svg" xmlns:xlink="http://www.w3.org/1999/xlink" x="0px" y="0px"
	 viewBox="30 -42 100 125" style="enable-background:new 30 -42 100 125;" xml:space="preserve">
<path d="M80,52.2c-0.7,0-1.4-0.2-2-0.5c-0.4-0.2-10.4-6-20.8-15.7C43.2,22.8,35.3,8.5,34.4-5.2c0-0.2,0-0.4,0-0.6c0-0.3,0-0.6,0-0.9
	C34.4-20.7,45.7-32,59.6-32c8.2,0,15.7,4,20.4,10.3C84.7-28,92.2-32,100.4-32c13.9,0,25.3,11.3,25.3,25.3c0,0.4,0,0.8,0,1.3
	c0.5,14.1-7,28.5-21.6,41.7c-10.8,9.7-21.6,15.3-22.1,15.5C81.3,52,80.6,52.2,80,52.2z M42.5-5.2c2.1,24.6,29.9,43.8,37.6,48.7
	c8.1-4.7,38.3-23.7,37.4-48.6c0-0.2,0-0.3,0-0.5c0-0.4,0-0.7,0-1c0-9.5-7.7-17.1-17.1-17.1c-7.6,0-14.3,5.1-16.4,12.3
	c-0.5,1.7-2.1,2.9-3.9,2.9c-1.8,0-3.4-1.2-3.9-2.9c-2.1-7.3-8.9-12.3-16.5-12.3c-9.5,0-17.1,7.7-17.1,17.1c0,0.3,0,0.6,0,1
	C42.5-5.6,42.5-5.4,42.5-5.2z"/>
</svg>
