<?xml version="1.0" encoding="utf-8"?>
<!-- Generator: Adobe Illustrator 19.1.0, SVG Export Plug-In . SVG Version: 6.00 Build 0)  -->
<svg version="1.1" id="Layer_1" xmlns="http://www.w3.org/2000/svg" xmlns:xlink="http://www.w3.org/1999/xlink" x="0px" y="0px"
	 viewBox="30 -42 100 125" style="enable-background:new 30 -42 100 125;" xml:space="preserve">
<g>
	<path d="M116.5,11V5c0-3-0.4-3.5-3.5-3.5H86.5V-25c0-3-0.5-3.5-3.5-3.5h-6c-3.1,0-4.5,0.5-4.5,3.5V1.5H45c-3,0-4.5,0.5-4.5,3.5v6
		c0,3.1,1.5,4.5,4.5,4.5h27.5V43c0,3,1.5,4.5,4.5,4.5h6c3,0,3.5-1.4,3.5-4.5V15.5H113C116,15.5,116.5,14,116.5,11z"/>
</g>
</svg>
